<svg width="26" height="24" viewBox="0 0 26 24" fill="none" xmlns="http://www.w3.org/2000/svg">
<g id="solar:home-bold">
<path id="Vector" d="M19.4979 3H16.9234C16.7868 3 16.6559 3.05268 16.5593 3.14645C16.4628 3.24021 16.4085 3.36739 16.4085 3.5V3.559L20.0128 6.359V3.5C20.0128 3.36739 19.9585 3.24021 19.862 3.14645C19.7654 3.05268 19.6344 3 19.4979 3Z" fill="white"/>
<path id="Vector_2" d="M11.517 9.5C11.517 9.16848 11.6526 8.85054 11.8941 8.61612C12.1355 8.3817 12.4629 8.25 12.8043 8.25C13.1457 8.25 13.4731 8.3817 13.7145 8.61612C13.9559 8.85054 14.0915 9.16848 14.0915 9.5C14.0915 9.83152 13.9559 10.1495 13.7145 10.3839C13.4731 10.6183 13.1457 10.75 12.8043 10.75C12.4629 10.75 12.1355 10.6183 11.8941 10.3839C11.6526 10.1495 11.517 9.83152 11.517 9.5Z" fill="white"/>
<path id="Vector_3" fill-rule="evenodd" clip-rule="evenodd" d="M21.8149 10.96L22.6202 11.586C22.7805 11.7073 22.9836 11.7624 23.1854 11.7393C23.3873 11.7161 23.5716 11.6167 23.6984 11.4625C23.8253 11.3082 23.8844 11.1117 23.863 10.9154C23.8416 10.7192 23.7414 10.539 23.5841 10.414L15.217 3.914C14.5322 3.38186 13.6813 3.09194 12.8043 3.09194C11.9272 3.09194 11.0763 3.38186 10.3915 3.914L2.02444 10.414C1.86439 10.5383 1.76173 10.7192 1.73904 10.9169C1.71635 11.1147 1.77548 11.3131 1.90344 11.4685C2.03139 11.6239 2.21769 11.7236 2.42133 11.7456C2.62498 11.7677 2.8293 11.7103 2.98935 11.586L3.79361 10.96V21.25H2.50638C2.30154 21.25 2.10509 21.329 1.96025 21.4697C1.81541 21.6103 1.73404 21.8011 1.73404 22C1.73404 22.1989 1.81541 22.3897 1.96025 22.5303C2.10509 22.671 2.30154 22.75 2.50638 22.75H23.1021C23.307 22.75 23.5034 22.671 23.6483 22.5303C23.7931 22.3897 23.8745 22.1989 23.8745 22C23.8745 21.8011 23.7931 21.6103 23.6483 21.4697C23.5034 21.329 23.307 21.25 23.1021 21.25H21.8149V10.96ZM9.97234 9.5C9.97234 8.77065 10.2707 8.07118 10.8018 7.55546C11.3329 7.03973 12.0532 6.75 12.8043 6.75C13.5553 6.75 14.2756 7.03973 14.8067 7.55546C15.3378 8.07118 15.6362 8.77065 15.6362 9.5C15.6362 10.2293 15.3378 10.9288 14.8067 11.4445C14.2756 11.9603 13.5553 12.25 12.8043 12.25C12.0532 12.25 11.3329 11.9603 10.8018 11.4445C10.2707 10.9288 9.97234 10.2293 9.97234 9.5ZM12.8557 13.25C13.5395 13.25 14.1296 13.25 14.6023 13.312C15.1089 13.378 15.5939 13.527 15.9873 13.909C16.3807 14.291 16.5341 14.762 16.6021 15.254C16.6618 15.684 16.666 16.214 16.666 16.827V21.25H15.1213V17C15.1213 16.272 15.1192 15.8 15.0718 15.454C15.0265 15.129 14.9544 15.027 14.8947 14.97C14.836 14.913 14.731 14.842 14.3963 14.798C14.039 14.752 13.5539 14.75 12.8043 14.75C12.0546 14.75 11.5685 14.752 11.2122 14.798C10.8775 14.842 10.7725 14.913 10.7138 14.97C10.6551 15.027 10.582 15.129 10.5367 15.454C10.4893 15.801 10.4872 16.272 10.4872 17V21.25H8.94255V16.95C8.94255 16.286 8.94255 15.713 9.0064 15.254C9.07436 14.762 9.2278 14.291 9.62118 13.909C10.0146 13.527 10.5006 13.378 11.0062 13.312C11.4789 13.25 12.069 13.25 12.7538 13.25H12.8547H12.8557Z" fill="white"/>
<path id="Vector_4" d="M11.517 9.5C11.517 9.16848 11.6526 8.85054 11.8941 8.61612C12.1355 8.3817 12.4629 8.25 12.8043 8.25C13.1457 8.25 13.4731 8.3817 13.7145 8.61612C13.9559 8.85054 14.0915 9.16848 14.0915 9.5C14.0915 9.83152 13.9559 10.1495 13.7145 10.3839C13.4731 10.6183 13.1457 10.75 12.8043 10.75C12.4629 10.75 12.1355 10.6183 11.8941 10.3839C11.6526 10.1495 11.517 9.83152 11.517 9.5Z" fill="white"/>
</g>
</svg>
