<svg width="24" height="24" viewBox="0 0 24 24" fill="none" xmlns="http://www.w3.org/2000/svg">
<g id="mingcute:down-fill" clip-path="url(#clip0_94_1576)">
<g id="Group">
<path id="Vector" fill-rule="evenodd" clip-rule="evenodd" d="M13.06 13.06C12.7787 13.3409 12.3975 13.4987 12 13.4987C11.6025 13.4987 11.2212 13.3409 10.94 13.06L5.28199 7.404C5.00073 7.1226 4.84277 6.741 4.84287 6.34314C4.84296 5.94528 5.0011 5.56376 5.28249 5.2825C5.56389 5.00123 5.94549 4.84327 6.34335 4.84337C6.7412 4.84346 7.12273 5.0016 7.40399 5.283L12 9.879L16.596 5.283C16.8788 5.00962 17.2576 4.85825 17.6509 4.86148C18.0442 4.86471 18.4205 5.02229 18.6987 5.30027C18.977 5.57825 19.1349 5.9544 19.1385 6.34769C19.1421 6.74099 18.9911 7.11996 18.718 7.403L13.061 13.061L13.06 13.06Z" fill="black"/>
</g>
</g>
<defs>
<clipPath id="clip0_94_1576">
<rect width="24" height="24" fill="white"/>
</clipPath>
</defs>
</svg>
