<svg width="24" height="24" viewBox="0 0 24 24" fill="none" xmlns="http://www.w3.org/2000/svg">
<g id="clarity:employee-solid">
<path id="Vector" d="M11.24 10.7933C13.6185 10.7933 15.5467 8.86517 15.5467 6.48667C15.5467 4.10816 13.6185 2.18 11.24 2.18C8.86148 2.18 6.93332 4.10816 6.93332 6.48667C6.93332 8.86517 8.86148 10.7933 11.24 10.7933Z" fill="black"/>
<path id="Vector_2" d="M14 18.6667H18.6667V19.6H14V18.6667Z" fill="black"/>
<path id="Vector_3" d="M10 20V22C10 22.1768 10.0702 22.3464 10.1953 22.4714C10.3203 22.5964 10.4899 22.6667 10.6667 22.6667H22C22.1768 22.6667 22.3464 22.5964 22.4714 22.4714C22.5964 22.3464 22.6667 22.1768 22.6667 22V15.3333C22.6667 15.1565 22.5964 14.987 22.4714 14.8619C22.3464 14.7369 22.1768 14.6667 22 14.6667H17.3333V13.6867C17.3333 13.5099 17.2631 13.3403 17.1381 13.2153C17.0131 13.0902 16.8435 13.02 16.6667 13.02C16.4899 13.02 16.3203 13.0902 16.1953 13.2153C16.0702 13.3403 16 13.5099 16 13.6867V14.6667H14.6667V12.28C13.5338 12.095 12.3879 12.0013 11.24 12C8.70854 11.9892 6.20544 12.5331 3.90668 13.5933C3.52833 13.7719 3.20915 14.0552 2.987 14.4097C2.76484 14.7642 2.64904 15.175 2.65334 15.5933V20H10ZM21.3333 21.3333H11.3333V16H16V16.28C16 16.4568 16.0702 16.6264 16.1953 16.7514C16.3203 16.8764 16.4899 16.9467 16.6667 16.9467C16.8435 16.9467 17.0131 16.8764 17.1381 16.7514C17.2631 16.6264 17.3333 16.4568 17.3333 16.28V16H21.3333V21.3333Z" fill="black"/>
</g>
</svg>
