<svg width="20" height="20" viewBox="0 0 20 20" fill="none" xmlns="http://www.w3.org/2000/svg">
<g id="bxs:purchase-tag">
<path id="Vector" d="M10.4884 2.15501C10.1759 1.84242 9.75207 1.66677 9.31008 1.66667H3.33341C2.89139 1.66667 2.46746 1.84227 2.1549 2.15483C1.84234 2.46739 1.66675 2.89131 1.66675 3.33334V9.31001C1.66684 9.752 1.8425 10.1759 2.15508 10.4883L8.82175 17.155C9.13429 17.4675 9.55814 17.643 10.0001 17.643C10.442 17.643 10.8659 17.4675 11.1784 17.155L17.1551 11.1783C17.4675 10.8658 17.6431 10.4419 17.6431 10C17.6431 9.55807 17.4675 9.13422 17.1551 8.82167L10.4884 2.15501ZM5.83342 7.50001C5.39128 7.4999 4.96729 7.32415 4.65473 7.01143C4.34217 6.69872 4.16664 6.27464 4.16675 5.83251C4.16686 5.39037 4.3426 4.96638 4.65532 4.65382C4.96804 4.34126 5.39211 4.16573 5.83425 4.16584C6.27639 4.16595 6.70037 4.34169 7.01293 4.65441C7.32549 4.96713 7.50103 5.3912 7.50092 5.83334C7.5008 6.27548 7.32506 6.69946 7.01234 7.01202C6.69963 7.32458 6.27555 7.50012 5.83342 7.50001Z" fill="white"/>
</g>
</svg>
