<svg width="21" height="20" viewBox="0 0 21 20" fill="none" xmlns="http://www.w3.org/2000/svg">
<g id="bxs:purchase-tag" clip-path="url(#clip0_147_399)">
<path id="Vector" d="M5.71612 8.76942H15.8824C15.9862 8.76942 15.9862 8.76942 15.9862 8.68325C15.8824 8.25239 15.7787 7.90771 15.5712 7.56303C15.1563 6.78749 14.4301 6.27047 13.6002 5.83961L13.1853 5.66727C13.1853 5.66727 13.1853 5.5811 13.289 5.5811C13.6002 5.23642 13.9114 4.89173 14.2226 4.46088C14.3264 4.37471 14.3264 4.28854 14.2226 4.20236C14.1189 4.11619 14.0152 4.20236 13.9114 4.28854L12.9778 5.40876C12.9778 5.40876 12.874 5.49493 12.874 5.40876C12.0441 5.15024 11.2142 5.06407 10.3843 5.06407C9.7619 5.06407 9.24321 5.23641 8.72452 5.40876H8.62079L7.68714 4.37471C7.68714 4.37471 7.68714 4.28854 7.58341 4.28854C7.47967 4.20236 7.37593 4.20236 7.37593 4.28854C7.27219 4.28854 7.27219 4.37471 7.37593 4.46088C7.37593 4.46088 7.37593 4.54705 7.47967 4.54705C7.68714 4.89173 7.99836 5.23642 8.30957 5.5811L8.41331 5.66727H8.30957C7.68714 5.92578 7.16845 6.27047 6.7535 6.70132C6.13107 7.21834 5.71612 7.90771 5.61238 8.68325C5.61238 8.76942 5.61238 8.76942 5.71612 8.76942ZM13.0815 6.35664C13.4965 6.35664 13.9114 6.61515 13.9114 7.046C13.9114 7.39069 13.6002 7.73537 13.1853 7.73537C12.7703 7.73537 12.3554 7.47686 12.3554 7.046C12.2516 6.70132 12.6666 6.35664 13.0815 6.35664ZM8.62079 6.35664C9.03574 6.35664 9.45069 6.61515 9.45069 7.046C9.45069 7.39069 9.13948 7.73537 8.72452 7.73537C8.20583 7.73537 7.79088 7.39069 7.79088 7.046C7.79088 6.70132 8.20583 6.35664 8.62079 6.35664ZM3.53762 9.63113C3.01893 9.63113 2.50024 10.062 2.50024 10.4928V14.8014C2.50024 15.2322 3.01893 15.6631 3.53762 15.6631C4.05631 15.6631 4.575 15.2322 4.575 14.8014V10.4928C4.575 10.062 4.05631 9.63113 3.53762 9.63113ZM18.0609 9.63113C17.5423 9.63113 17.0236 10.062 17.0236 10.4928V14.8014C17.0236 15.2322 17.5423 15.6631 18.0609 15.6631C18.5796 15.6631 19.0983 15.2322 19.0983 14.8014V10.4928C19.0983 10.062 18.5796 9.63113 18.0609 9.63113ZM5.61238 16.5248C5.61238 16.9557 6.13107 17.3865 6.64976 17.3865H7.68714V19.9716C7.68714 20.4025 8.20583 20.8333 8.72452 20.8333C9.24321 20.8333 9.7619 20.4025 9.7619 19.9716V17.3865H11.8367V19.9716C11.8367 20.4025 12.3554 20.8333 12.874 20.8333C13.3927 20.8333 13.9114 20.4025 13.9114 19.9716V17.3865H14.9488C15.4675 17.3865 15.9862 16.9557 15.9862 16.5248V9.63113H5.61238V16.5248Z" fill="black"/>
</g>
<defs>
<clipPath id="clip0_147_399">
<rect width="20" height="20" fill="white" transform="translate(0.0620117)"/>
</clipPath>
</defs>
</svg>
